<svg width="20" height="23" viewBox="0 0 20 23" fill="none" xmlns="http://www.w3.org/2000/svg">
<path d="M4.16675 6.33333C4.16675 3.11167 6.77842 0.5 10.0001 0.5C13.2217 0.5 15.8334 3.11167 15.8334 6.33333C15.8334 9.55499 13.2217 12.1667 10.0001 12.1667C6.77842 12.1667 4.16675 9.55499 4.16675 6.33333ZM10.0001 9.83333C11.9331 9.83333 13.5001 8.26633 13.5001 6.33333C13.5001 4.40034 11.9331 2.83333 10.0001 2.83333C8.06709 2.83333 6.50008 4.40034 6.50008 6.33333C6.50008 8.26633 8.06709 9.83333 10.0001 9.83333Z" fill="white"/>
<path d="M3.40042 16.067C1.65008 17.8173 0.666748 20.1913 0.666748 22.6667H3.00008C3.00008 20.8102 3.73758 19.0297 5.05033 17.7169C6.36309 16.4042 8.14357 15.6667 10.0001 15.6667C11.8566 15.6667 13.6371 16.4042 14.9498 17.7169C16.2626 19.0297 17.0001 20.8102 17.0001 22.6667H19.3334C19.3334 20.1913 18.3501 17.8173 16.5997 16.067C14.8494 14.3167 12.4754 13.3333 10.0001 13.3333C7.52473 13.3333 5.15076 14.3167 3.40042 16.067Z" fill="white"/>
</svg>
