<svg width="103" height="96" viewBox="0 0 103 96" fill="none" xmlns="http://www.w3.org/2000/svg">
<path d="M102.754 23.9348C96.969 15.1904 88.1153 8.26046 77.4718 4.14564C66.8283 0.030807 54.9458 -1.05589 43.5405 1.04247C32.1351 3.14083 21.7972 8.31565 14.0197 15.8196C6.2421 23.3235 1.42747 32.7682 0.271092 42.7897C-0.885292 52.8111 1.67642 62.8907 7.58627 71.5727C13.4961 80.2546 22.4482 87.0897 33.1498 91.0907C43.8513 95.0917 55.7484 96.0516 67.1228 93.8318C78.4973 91.612 88.7605 86.3273 96.4302 78.741L55.8221 48.1199C55.6699 48.2704 55.4662 48.3753 55.2405 48.4193C55.0149 48.4634 54.7788 48.4443 54.5664 48.365C54.3541 48.2856 54.1765 48.1499 54.0592 47.9777C53.9419 47.8054 53.8911 47.6054 53.914 47.4065C53.937 47.2077 54.0325 47.0203 54.1868 46.8714C54.3412 46.7225 54.5463 46.6198 54.7726 46.5782C54.9989 46.5365 55.2347 46.5581 55.4459 46.6397C55.6571 46.7214 55.8328 46.8589 55.9476 47.0324L102.754 23.9348Z" fill="#884D3A"/>
<path d="M97.8514 26.017C92.4692 18.559 84.4226 12.7113 74.8531 9.30327C65.2835 5.89526 54.6769 5.10004 44.538 7.03042C34.399 8.9608 25.2424 13.5188 18.3672 20.0577C11.492 26.5967 7.24727 34.7846 6.23511 43.46C5.22296 52.1354 7.49479 60.8577 12.7283 68.3897C17.9619 75.9216 25.8914 81.8807 35.3921 85.4217C44.8927 88.9626 55.482 89.9056 65.6579 88.1168C75.8337 86.328 85.0794 81.8983 92.0834 75.4561L55.5 47.5L97.8514 26.017Z" fill="#EEBD0E"/>
<line x1="55.4999" y1="6.01204" x2="53.4999" y2="89.012" stroke="black" stroke-opacity="0.5"/>
<line x1="18.3051" y1="19.6039" x2="92.3051" y2="76.6039" stroke="black" stroke-opacity="0.5"/>
<line x1="13.768" y1="69.5571" x2="97.768" y2="25.5571" stroke="black" stroke-opacity="0.5"/>
<circle cx="30" cy="21" r="3" fill="#E97C18"/>
<circle cx="45" cy="17" r="3" fill="#E97C18"/>
<circle cx="45" cy="30" r="3" fill="#E97C18"/>
<circle cx="22" cy="35" r="3" fill="#E97C18"/>
<circle cx="36" cy="45" r="3" fill="#E97C18"/>
<circle cx="19" cy="51" r="3" fill="#E97C18"/>
<circle cx="47" cy="63" r="3" fill="#E97C18"/>
<circle cx="32" cy="71" r="3" fill="#E97C18"/>
<circle cx="47" cy="78" r="3" fill="#E97C18"/>
<circle cx="62" cy="63" r="3" fill="#E97C18"/>
<circle cx="61" cy="79" r="3" fill="#E97C18"/>
<circle cx="74" cy="76" r="3" fill="#E97C18"/>
<circle cx="87" cy="23" r="3" fill="#E97C18"/>
<circle cx="68" cy="35" r="3" fill="#E97C18"/>
<circle cx="69" cy="19" r="3" fill="#E97C18"/>
</svg>
